<svg xmlns="http://www.w3.org/2000/svg" viewBox="0 0 24.15 23.56"><title>Asset 1</title><g id="Layer_2" data-name="Layer 2"><g id="Layer_1-2" data-name="Layer 1"><path d="M21.48,1.59a7,7,0,0,0-7.8-.75,10.43,10.43,0,0,0-2.16,1.47c-.55-.49-3-2.49-5.88-2C3.58.68,1.85,2.22.47,5-2.74,14.64,11.64,23.1,12.25,23.46a.75.75,0,0,0,.38.1.8.8,0,0,0,.45-.14c.43-.31,10.45-7.65,11-15.14A8.16,8.16,0,0,0,21.48,1.59ZM12.59,21.87C10.26,20.42-.62,13.1,1.87,5.59,3,3.37,4.34,2.1,5.89,1.82a3.85,3.85,0,0,1,.67-.05,6.58,6.58,0,0,1,3.88,1.62A8.46,8.46,0,0,0,8.06,8.3a.76.76,0,0,0,1.52,0c0-1.49,2-4.71,4.78-6.09a5.51,5.51,0,0,1,6.13.53A6.58,6.58,0,0,1,22.6,8.16C22.13,14.15,14.45,20.44,12.59,21.87Z"/></g></g></svg>